<?xml version="1.0" standalone="no"?>
<!DOCTYPE svg PUBLIC "-//W3C//DTD SVG 20010904//EN"
 "http://www.w3.org/TR/2001/REC-SVG-20010904/DTD/svg10.dtd">
<svg version="1.0" xmlns="http://www.w3.org/2000/svg"
 width="142.000000pt" height="150.000000pt" viewBox="0 0 142.000000 150.000000"
 preserveAspectRatio="xMidYMid meet">

<g transform="translate(0.000000,150.000000) scale(0.100000,-0.100000)"
fill="#000000" stroke="none">
<path d="M1163 756 c-6 -10 -41 -50 -79 -88 -124 -125 -292 -220 -474 -269
-71 -19 -111 -23 -247 -23 -90 -1 -163 -2 -163 -4 0 -1 37 -26 82 -56 144 -93
271 -132 396 -123 108 8 185 48 282 145 90 91 147 185 190 321 29 89 36 137
13 97z"/>
</g>
</svg>
